<svg xmlns="http://www.w3.org/2000/svg" viewBox="0 0 720 530" width="720" height="530" font-family="system-ui, -apple-system, 'Hiragino Sans', 'Noto Sans JP', sans-serif" role="img">
  <title>align-items と align-content の違い</title>
  <rect width="720" height="530" fill="#ffffff"/>
  <text x="30" y="34" font-size="18" font-weight="700" fill="#111827">align-items：各行の中でアイテムをそろえる</text>
  <text x="30" y="70" font-size="16" fill="#111827" font-family="ui-monospace, Menlo, monospace">start</text>
  <rect x="30" y="82" width="200" height="150" rx="4" fill="#f3f4f6" stroke="#374151" stroke-width="2"/>
  <rect x="38" y="86" width="184" height="69" fill="none" stroke="#b45309" stroke-width="1.5" stroke-dasharray="5 4"/>
  <rect x="44" y="88" width="52" height="30" rx="3" fill="#93c5fd" stroke="#1e3a8a" stroke-width="1.5"/>
  <rect x="104" y="88" width="52" height="30" rx="3" fill="#93c5fd" stroke="#1e3a8a" stroke-width="1.5"/>
  <rect x="164" y="88" width="52" height="30" rx="3" fill="#93c5fd" stroke="#1e3a8a" stroke-width="1.5"/>
  <rect x="38" y="159" width="184" height="69" fill="none" stroke="#b45309" stroke-width="1.5" stroke-dasharray="5 4"/>
  <rect x="44" y="161" width="52" height="30" rx="3" fill="#93c5fd" stroke="#1e3a8a" stroke-width="1.5"/>
  <rect x="104" y="161" width="52" height="30" rx="3" fill="#93c5fd" stroke="#1e3a8a" stroke-width="1.5"/>
  <text x="260" y="70" font-size="16" fill="#111827" font-family="ui-monospace, Menlo, monospace">center</text>
  <rect x="260" y="82" width="200" height="150" rx="4" fill="#f3f4f6" stroke="#374151" stroke-width="2"/>
  <rect x="268" y="86" width="184" height="69" fill="none" stroke="#b45309" stroke-width="1.5" stroke-dasharray="5 4"/>
  <rect x="274" y="105.5" width="52" height="30" rx="3" fill="#93c5fd" stroke="#1e3a8a" stroke-width="1.5"/>
  <rect x="334" y="105.5" width="52" height="30" rx="3" fill="#93c5fd" stroke="#1e3a8a" stroke-width="1.5"/>
  <rect x="394" y="105.5" width="52" height="30" rx="3" fill="#93c5fd" stroke="#1e3a8a" stroke-width="1.5"/>
  <rect x="268" y="159" width="184" height="69" fill="none" stroke="#b45309" stroke-width="1.5" stroke-dasharray="5 4"/>
  <rect x="274" y="178.5" width="52" height="30" rx="3" fill="#93c5fd" stroke="#1e3a8a" stroke-width="1.5"/>
  <rect x="334" y="178.5" width="52" height="30" rx="3" fill="#93c5fd" stroke="#1e3a8a" stroke-width="1.5"/>
  <text x="490" y="70" font-size="16" fill="#111827" font-family="ui-monospace, Menlo, monospace">stretch</text>
  <rect x="490" y="82" width="200" height="150" rx="4" fill="#f3f4f6" stroke="#374151" stroke-width="2"/>
  <rect x="498" y="86" width="184" height="69" fill="none" stroke="#b45309" stroke-width="1.5" stroke-dasharray="5 4"/>
  <rect x="504" y="88" width="52" height="65" rx="3" fill="#93c5fd" stroke="#1e3a8a" stroke-width="1.5"/>
  <rect x="564" y="88" width="52" height="65" rx="3" fill="#93c5fd" stroke="#1e3a8a" stroke-width="1.5"/>
  <rect x="624" y="88" width="52" height="65" rx="3" fill="#93c5fd" stroke="#1e3a8a" stroke-width="1.5"/>
  <rect x="498" y="159" width="184" height="69" fill="none" stroke="#b45309" stroke-width="1.5" stroke-dasharray="5 4"/>
  <rect x="504" y="161" width="52" height="65" rx="3" fill="#93c5fd" stroke="#1e3a8a" stroke-width="1.5"/>
  <rect x="564" y="161" width="52" height="65" rx="3" fill="#93c5fd" stroke="#1e3a8a" stroke-width="1.5"/>
  <text x="30" y="284" font-size="18" font-weight="700" fill="#111827">align-content：行のまとまりをコンテナの中でそろえる</text>
  <text x="30" y="320" font-size="16" fill="#111827" font-family="ui-monospace, Menlo, monospace">start</text>
  <rect x="30" y="332" width="200" height="150" rx="4" fill="#f3f4f6" stroke="#374151" stroke-width="2"/>
  <rect x="38" y="336" width="184" height="34" fill="none" stroke="#b45309" stroke-width="1.5" stroke-dasharray="5 4"/>
  <rect x="44" y="338" width="52" height="30" rx="3" fill="#93c5fd" stroke="#1e3a8a" stroke-width="1.5"/>
  <rect x="104" y="338" width="52" height="30" rx="3" fill="#93c5fd" stroke="#1e3a8a" stroke-width="1.5"/>
  <rect x="164" y="338" width="52" height="30" rx="3" fill="#93c5fd" stroke="#1e3a8a" stroke-width="1.5"/>
  <rect x="38" y="374" width="184" height="34" fill="none" stroke="#b45309" stroke-width="1.5" stroke-dasharray="5 4"/>
  <rect x="44" y="376" width="52" height="30" rx="3" fill="#93c5fd" stroke="#1e3a8a" stroke-width="1.5"/>
  <rect x="104" y="376" width="52" height="30" rx="3" fill="#93c5fd" stroke="#1e3a8a" stroke-width="1.5"/>
  <text x="260" y="320" font-size="16" fill="#111827" font-family="ui-monospace, Menlo, monospace">center</text>
  <rect x="260" y="332" width="200" height="150" rx="4" fill="#f3f4f6" stroke="#374151" stroke-width="2"/>
  <rect x="268" y="371" width="184" height="34" fill="none" stroke="#b45309" stroke-width="1.5" stroke-dasharray="5 4"/>
  <rect x="274" y="373" width="52" height="30" rx="3" fill="#93c5fd" stroke="#1e3a8a" stroke-width="1.5"/>
  <rect x="334" y="373" width="52" height="30" rx="3" fill="#93c5fd" stroke="#1e3a8a" stroke-width="1.5"/>
  <rect x="394" y="373" width="52" height="30" rx="3" fill="#93c5fd" stroke="#1e3a8a" stroke-width="1.5"/>
  <rect x="268" y="409" width="184" height="34" fill="none" stroke="#b45309" stroke-width="1.5" stroke-dasharray="5 4"/>
  <rect x="274" y="411" width="52" height="30" rx="3" fill="#93c5fd" stroke="#1e3a8a" stroke-width="1.5"/>
  <rect x="334" y="411" width="52" height="30" rx="3" fill="#93c5fd" stroke="#1e3a8a" stroke-width="1.5"/>
  <text x="490" y="320" font-size="16" fill="#111827" font-family="ui-monospace, Menlo, monospace">space-between</text>
  <rect x="490" y="332" width="200" height="150" rx="4" fill="#f3f4f6" stroke="#374151" stroke-width="2"/>
  <rect x="498" y="336" width="184" height="34" fill="none" stroke="#b45309" stroke-width="1.5" stroke-dasharray="5 4"/>
  <rect x="504" y="338" width="52" height="30" rx="3" fill="#93c5fd" stroke="#1e3a8a" stroke-width="1.5"/>
  <rect x="564" y="338" width="52" height="30" rx="3" fill="#93c5fd" stroke="#1e3a8a" stroke-width="1.5"/>
  <rect x="624" y="338" width="52" height="30" rx="3" fill="#93c5fd" stroke="#1e3a8a" stroke-width="1.5"/>
  <rect x="498" y="444" width="184" height="34" fill="none" stroke="#b45309" stroke-width="1.5" stroke-dasharray="5 4"/>
  <rect x="504" y="446" width="52" height="30" rx="3" fill="#93c5fd" stroke="#1e3a8a" stroke-width="1.5"/>
  <rect x="564" y="446" width="52" height="30" rx="3" fill="#93c5fd" stroke="#1e3a8a" stroke-width="1.5"/>
  <rect x="30" y="506" width="26" height="14" fill="none" stroke="#b45309" stroke-width="1.5" stroke-dasharray="5 4"/>
  <text x="64" y="518" font-size="14" fill="#374151">折り返しでできた行（フレックスライン）</text>
</svg>
